<?xml version="1.0" encoding="utf-8"?>
<!-- Generator: Adobe Illustrator 25.2.0, SVG Export Plug-In . SVG Version: 6.00 Build 0)  -->
<svg version="1.1" id="Capa_1" xmlns="http://www.w3.org/2000/svg" xmlns:xlink="http://www.w3.org/1999/xlink" x="0px" y="0px"
	 viewBox="0 0 500 500" style="enable-background:new 0 0 500 500;" xml:space="preserve">
<style type="text/css">
	.st0{fill:#DFEDF5;}
	.st1{fill:url(#SVGID_1_);}
	.st2{fill:url(#SVGID_2_);}
	.st3{fill:url(#SVGID_3_);}
	.st4{fill:url(#SVGID_4_);}
	.st5{fill:url(#SVGID_5_);}
	.st6{fill:url(#SVGID_6_);}
	.st7{fill:url(#SVGID_7_);}
</style>
<g>
	<g>
		<path class="st0" d="M339.8,237.8c0.7-15,1.5-30,2.2-45c1.1-21.6,6.7-41.9,16.5-61.2c0.4-0.9,0.8-1.7,1.3-2.8c-1.3,0-2.1-0.1-3,0
			c-13.1,1.4-26.1,3.2-39.2,4c-7.3,0.4-11.9,3.8-16.5,8.9c-17.8,19.9-32,41.8-39.5,67.7c-6,20.4-9.1,41.3-11.3,62.5
			c-0.2,1.9-0.7,2.7-2.5,3.4c-19.6,7.3-37.2,18.1-53.1,31.6c-1.1,1-2.1,2.4-2.6,3.8c-4.1,12.6-8.1,25.2-12.1,37.7
			c-0.2,0.7-0.3,1.5-0.6,2.7c21.1-11.7,42.3-21.7,65.7-27c0,1.1,0.1,1.8,0,2.4c-2.9,20.4-6.7,40.7-13,60.4
			c-5,15.5-11.2,30.4-21.1,43.6c-8.4,11.1-18.7,19.7-32.4,23.5c-22.4,6.2-41.5-1.2-51.9-20.4c-1.9-3.4-3.4-7.1-4.6-10.8
			c-3.3-9.7-3.3-19.9-3.6-30c-0.1-6.8-0.8-13.7-1.6-20.4c-0.5-4.5-3-7-7.4-7.2c-3.3-0.2-7,0-9.8,1.5c-18.4,9.4-33.4,22.8-45.1,39.8
			c-2.5,3.7-2.9,8-2.3,12.4c1.3,8.7,5.3,16.2,10.9,22.8c13.5,16.2,30.4,27.5,50.8,33c21.7,5.9,43.8,6.8,66.1,4.6
			c24.8-2.5,47.9-10,68.8-23.6c33.7-21.9,56.6-52.6,71.1-89.8c8.4-21.4,13.1-43.6,15.2-66.4c0.2-2.4,1-3.4,3.4-4.1
			c16.1-4.6,32.2-9.3,48.2-14.4c8-2.6,15.7-6.1,22.3-11.6c2.4-2,3.5-4.3,3.8-7.4c1-12,2.4-23.9,3.6-35.8c0.5-5.2,1-10.4,1.6-16.1
			c-25.8,12.2-51.6,22.6-78.5,31.4C339.8,239.8,339.8,238.8,339.8,237.8z"/>
		<path class="st0" d="M139.8,249.5c3.8,1.9,8,3.3,12,4.7c1.3,0.4,3,0.3,4.2-0.2c13.8-5.6,25.2-14.4,34.1-26.3
			c2.4-3.2,4.2-6.9,5.6-10.6c1.5-4,0.7-6.2-2.9-8.7c-2.6-1.8-5.5-3.2-8.3-4.8c-5.3-3.1-10.9-6-15.9-9.5
			c-7.7-5.5-13.8-12.6-16.5-21.9c-4.9-17.2-1.6-32.9,9.4-46.9c6.3-8.1,14.7-13.6,23.8-18c18.4-9,38.2-12.4,58.4-12.2
			c30.8,0.3,61.5,1.4,92.3,2.4c14.7,0.5,29.3,0.3,43.6-3.2c13-3.2,24.4-9.1,32-20.7c11.4-17.4,16.2-37.1,20.1-57.5
			c-5.3,0-10.1,0-14.8,0c-0.7,0-1.7,0.5-2,1c-2.8,4-6.8,6.1-11.3,7.4c-7.7,2.2-15.6,2.7-23.4,2.1c-25.5-1.8-51.1-3.6-76.6-5.8
			c-18.6-1.6-36.9-0.3-54.9,4.6c-28.4,7.7-52.1,23.4-73.1,43.6c-25.6,24.7-43,54.7-55.6,87.7c-5.8,15.3-9.9,31.1-9,47.8
			C112.4,224.8,121.2,240.4,139.8,249.5z"/>
	</g>
	<g>
		<linearGradient id="SVGID_1_" gradientUnits="userSpaceOnUse" x1="180.2817" y1="348.8596" x2="434.035" y2="348.8596">
			<stop  offset="0" style="stop-color:#EC4894"/>
			<stop  offset="0.4665" style="stop-color:#EF4B40"/>
			<stop  offset="1" style="stop-color:#EAB00A"/>
		</linearGradient>
		<path class="st1" d="M422.2,220.7c-0.5,4-0.8,8-1.3,12c-0.9,8.5-2,17.1-2.7,25.6c-0.5,6.5-1.9,12.1-7.9,16
			c-7.9,5.3-16.3,9.2-25.2,12c-14.9,4.7-29.9,9.1-44.7,13.6c-1.3,8-2.5,16.1-3.9,24c-3.7,20.8-9.9,40.8-19.2,59.9
			c-13.2,27-31.3,50.1-55.3,68.4c-24,18.2-51.2,28.2-81.8,31.6c1,0.1,1.4,0.2,1.7,0.2c4.9-0.3,9.7-0.6,14.6-1.1
			c24.6-2.5,47.5-10,68.2-23.5c33.7-21.9,56.5-52.5,71-89.5c8.3-21.2,13.2-43.3,15.2-66c0.3-3,1.4-4.2,4.3-5c17-5,33.9-10,50.8-15.4
			c7.2-2.3,14.1-5.8,19.7-11.1c1.3-1.2,2.6-3,2.8-4.6c1.7-14.7,3.1-29.5,4.6-44.2c0.3-3.1,0.5-6.2,0.8-9.8c-4,1.8-7.4,3.4-10.7,5
			C422.7,219.1,422.2,220,422.2,220.7z"/>
		<linearGradient id="SVGID_2_" gradientUnits="userSpaceOnUse" x1="344.4784" y1="183.6666" x2="375.6245" y2="183.6666">
			<stop  offset="0" style="stop-color:#EC4894"/>
			<stop  offset="0.4665" style="stop-color:#EF4B40"/>
			<stop  offset="1" style="stop-color:#EAB00A"/>
		</linearGradient>
		<path class="st2" d="M356.1,228.5c0.5-10.4,1.2-20.8,1.7-31.2c1.1-21.6,6.6-42.1,16.3-61.4c0.5-1,0.9-2,1.5-3.4
			c-3.5,0.2-6.5,0.6-9.6,0.6c-2.4,0-3.7,0.9-4.7,3.1c-6.9,15.2-12.5,30.8-13.6,47.7c-0.7,10-1.5,19.9-2.2,29.9
			c-0.3,5.1-0.4,10.3-0.6,15.4c-0.1,1.7-0.3,3.4-0.4,5.5c3.4-1.2,6.4-2.3,9.4-3.2C355.4,231,356,230.2,356.1,228.5z"/>
		<linearGradient id="SVGID_3_" gradientUnits="userSpaceOnUse" x1="154.8773" y1="148.8396" x2="239.5891" y2="148.8396">
			<stop  offset="0" style="stop-color:#EC4894"/>
			<stop  offset="0.4665" style="stop-color:#EF4B40"/>
			<stop  offset="1" style="stop-color:#EAB00A"/>
		</linearGradient>
		<path class="st3" d="M169.1,188.4c4.2,3.5,8.9,6.3,13.4,9.4c0.2-0.3,0.4-0.5,0.6-0.8c-0.6-0.6-1.3-1.2-1.9-1.8
			c-5.1-4.5-9.3-9.8-12-16.1c-7.6-18-1.8-41.7,13.8-55.7c9.9-9,21.7-14.7,34.4-18.3c7.3-2.1,14.8-3.5,22.2-5.2
			c-8,0.5-16,1.1-23.9,2.5c-16.2,2.9-31.3,8.5-43.9,19.3c-14.1,12-19.1,27.5-16,45.6C157.2,176.1,162.4,182.8,169.1,188.4z"/>
		<linearGradient id="SVGID_4_" gradientUnits="userSpaceOnUse" x1="367.7896" y1="60.7677" x2="447.8893" y2="60.7677">
			<stop  offset="0" style="stop-color:#EC4894"/>
			<stop  offset="0.4665" style="stop-color:#EF4B40"/>
			<stop  offset="1" style="stop-color:#EAB00A"/>
		</linearGradient>
		<path class="st4" d="M437.5,20.1c-0.7,0-1.7,1.2-1.9,2c-3.2,14.8-6.7,29.6-13.6,43.2c-4.5,9-9.7,17.4-18.1,23.4
			c-10.9,7.8-23.4,10.5-36.1,12.7c11.5-0.3,22.8-1.4,33.8-5c12.4-4,21.9-11.4,28.5-22.7c6.5-11.2,10.7-23.3,13.8-35.8
			c1.5-5.9,2.6-11.8,4-18C444.1,20.1,440.8,19.9,437.5,20.1z"/>
		<linearGradient id="SVGID_5_" gradientUnits="userSpaceOnUse" x1="121.1052" y1="408.8325" x2="150.4239" y2="408.8325">
			<stop  offset="0" style="stop-color:#EC4894"/>
			<stop  offset="0.4665" style="stop-color:#EF4B40"/>
			<stop  offset="1" style="stop-color:#EAB00A"/>
		</linearGradient>
		<path class="st5" d="M149.4,447.3c-5.9-6.6-9.8-14.3-12.3-22.8c-2.6-9-2.7-18.3-2.9-27.6c-0.2-6.9-0.6-13.9-1.6-20.7
			c-0.8-5.9-5.6-8.6-11.5-7.1c0.5,2.9,1.2,5.9,1.4,8.8c0.5,9.3,0.8,18.5,1.1,27.8c0.3,10.5,3.4,20.2,9.1,29
			c4.3,6.7,9.9,11.8,17.7,14.4c0-0.3,0-0.4,0-0.4C150.1,448.2,149.7,447.7,149.4,447.3z"/>
		<linearGradient id="SVGID_6_" gradientUnits="userSpaceOnUse" x1="163.1816" y1="232.66" x2="212.3109" y2="232.66">
			<stop  offset="0" style="stop-color:#EC4894"/>
			<stop  offset="0.4665" style="stop-color:#EF4B40"/>
			<stop  offset="1" style="stop-color:#EAB00A"/>
		</linearGradient>
		<path class="st6" d="M205.9,231.8c2.4-3.2,4.2-7.1,5.8-10.8c0.9-2.1,1.1-4.6-0.7-6.6c-3.3-3.6-7.6-5.4-12.1-7.2
			c2.3,3.1,2.8,6.5,1.8,9.9c-0.9,3.2-2.1,6.4-3.8,9.3c-4.1,7.1-9.8,13.1-16.2,18.2c-5.6,4.5-11.7,8.2-17.5,12.2
			c3.4,1.6,6.9,2.4,11.2,0.4C186.9,251,197.6,242.8,205.9,231.8z"/>
		<linearGradient id="SVGID_7_" gradientUnits="userSpaceOnUse" x1="195.1075" y1="342.5586" x2="239.6072" y2="342.5586">
			<stop  offset="0" style="stop-color:#EC4894"/>
			<stop  offset="0.4665" style="stop-color:#EF4B40"/>
			<stop  offset="1" style="stop-color:#EAB00A"/>
		</linearGradient>
		<path class="st7" d="M199.1,346.1c-0.7,0.4-1.4,1.2-1.7,2c-0.8,2.1-1.4,4.2-2.2,6.8c0.9-0.4,1.3-0.5,1.6-0.6
			c13.2-7.4,26.7-14,40.8-19.2c2.5-0.9,2.3-2.6,1.7-4.7C225.2,334.2,211.9,339.7,199.1,346.1z"/>
	</g>
</g>
</svg>
